<svg width="49" height="48" viewBox="0 0 49 48" fill="none" xmlns="http://www.w3.org/2000/svg">
<rect x="0.5" width="48" height="48" rx="24" fill="#FAFBFC"/>
<path d="M31.0566 16.1875H17.9434C17.25 16.1875 16.6875 16.75 16.6875 17.4434V30.5566C16.6875 31.25 17.25 31.8125 17.9434 31.8125H31.0566C31.75 31.8125 32.3125 31.25 32.3125 30.5566V17.4434C32.3125 16.75 31.75 16.1875 31.0566 16.1875ZM31.0566 30.5625C22.3105 30.5605 17.9375 30.5586 17.9375 30.5566C17.9395 21.8105 17.9414 17.4375 17.9434 17.4375C26.6895 17.4395 31.0625 17.4414 31.0625 17.4434C31.0605 26.1895 31.0586 30.5625 31.0566 30.5625ZM19.0039 22.0449H21.3223V29.502H19.0039V22.0449ZM20.1641 21.0254C20.9043 21.0254 21.5078 20.4238 21.5078 19.6816C21.5078 19.5052 21.4731 19.3304 21.4055 19.1674C21.338 19.0044 21.239 18.8562 21.1142 18.7315C20.9895 18.6067 20.8413 18.5077 20.6783 18.4402C20.5153 18.3726 20.3405 18.3379 20.1641 18.3379C19.9876 18.3379 19.8129 18.3726 19.6498 18.4402C19.4868 18.5077 19.3387 18.6067 19.2139 18.7315C19.0891 18.8562 18.9901 19.0044 18.9226 19.1674C18.8551 19.3304 18.8203 19.5052 18.8203 19.6816C18.8184 20.4238 19.4199 21.0254 20.1641 21.0254ZM25.0918 25.8125C25.0918 24.8398 25.2773 23.8984 26.4824 23.8984C27.6699 23.8984 27.6875 25.0098 27.6875 25.875V29.502H30.0039V25.4121C30.0039 23.4043 29.5703 21.8594 27.2246 21.8594C26.0977 21.8594 25.3418 22.4785 25.0312 23.0645H25V22.0449H22.7754V29.502H25.0918V25.8125Z" fill="#0052CC"/>
</svg>
