<svg width="49" height="48" viewBox="0 0 49 48" fill="none" xmlns="http://www.w3.org/2000/svg">
<rect x="0.5" width="48" height="48" rx="24" fill="#FAFBFC"/>
<path d="M30.6417 20.8959V21.3126C30.6417 25.5084 27.4583 30.3168 21.6333 30.3168C19.9137 30.3205 18.2306 29.8208 16.7917 28.8793C17.0416 28.9132 17.2936 28.9285 17.5458 28.9251C18.9712 28.929 20.3566 28.4536 21.4792 27.5751C20.8169 27.5654 20.1746 27.3471 19.6436 26.9514C19.1125 26.5557 18.7196 26.0027 18.5208 25.371C18.7181 25.4128 18.9192 25.4337 19.1208 25.4335C19.4024 25.4335 19.6827 25.3957 19.9542 25.3209C19.2369 25.178 18.5916 24.7902 18.1287 24.2239C17.6659 23.6577 17.4141 22.9481 17.4167 22.2168V22.1751C17.8555 22.4203 18.3475 22.5547 18.85 22.5668C18.1811 22.1266 17.7055 21.4476 17.5204 20.6685C17.3353 19.8895 17.4547 19.0691 17.8542 18.3751C18.6501 19.3541 19.6432 20.1546 20.7688 20.7245C21.8944 21.2945 23.1273 21.6212 24.3875 21.6834C24.3251 21.447 24.2957 21.203 24.3 20.9584C24.2765 20.3122 24.4528 19.6743 24.8049 19.1318C25.1569 18.5894 25.6676 18.1685 26.2674 17.9267C26.8672 17.6849 27.527 17.6338 28.1568 17.7804C28.7867 17.927 29.3561 18.2641 29.7875 18.7459C30.4966 18.6029 31.1768 18.3423 31.8 17.9751C31.5636 18.7215 31.0608 19.3548 30.3875 19.7543C31.0165 19.6676 31.6297 19.4908 32.2083 19.2293C31.789 19.8733 31.2585 20.4376 30.6417 20.8959V20.8959Z" stroke="#0052CC" stroke-linecap="round" stroke-linejoin="round"/>
</svg>
