<svg width="49" height="48" viewBox="0 0 49 48" fill="none" xmlns="http://www.w3.org/2000/svg">
<rect x="0.5" width="48" height="48" rx="24" fill="#FAFBFC"/>
<path d="M26.1667 21.75V24.1667H28.3333C28.5 24.1667 28.5833 24.3333 28.5833 24.5L28.25 26.0833C28.25 26.1667 28.0833 26.25 28 26.25H26.1667V32.3333H23.6667V26.3333H22.25C22.0833 26.3333 22 26.25 22 26.0833V24.5C22 24.3333 22.0833 24.25 22.25 24.25H23.6667V21.5C23.6667 20.0833 24.75 19 26.1667 19H28.4167C28.5833 19 28.6667 19.0833 28.6667 19.25V21.25C28.6667 21.4167 28.5833 21.5 28.4167 21.5H26.4167C26.25 21.5 26.1667 21.5833 26.1667 21.75Z" stroke="#0052CC" stroke-miterlimit="10" stroke-linecap="round"/>
<path d="M27 32.3334H22C17.8333 32.3334 16.1667 30.6667 16.1667 26.5001V21.5001C16.1667 17.3334 17.8333 15.6667 22 15.6667H27C31.1667 15.6667 32.8333 17.3334 32.8333 21.5001V26.5001C32.8333 30.6667 31.1667 32.3334 27 32.3334Z" stroke="#0052CC" stroke-linecap="round" stroke-linejoin="round"/>
</svg>
