<svg width="49" height="48" viewBox="0 0 49 48" fill="none" xmlns="http://www.w3.org/2000/svg">
<rect x="0.5" width="48" height="48" rx="24" fill="#FAFBFC"/>
<path d="M28.6699 19.3966L28.6706 19.3966C28.7277 19.3965 28.7843 19.4077 28.8371 19.4295C28.8899 19.4514 28.9378 19.4834 28.9782 19.5238C29.0186 19.5642 29.0507 19.6122 29.0725 19.665C29.0943 19.7178 29.1055 19.7744 29.1055 19.8315V19.8321C29.1055 20.0748 28.912 20.2677 28.6699 20.2677C28.4285 20.2677 28.2344 20.0736 28.2344 19.8321C28.2344 19.5907 28.4285 19.3966 28.6699 19.3966ZM31.7584 20.8016L31.7584 20.8016L31.7586 20.8055C31.8109 21.735 31.8099 22.6585 31.8089 23.6045C31.8087 23.7359 31.8086 23.8677 31.8086 24.0001C31.8086 24.1486 31.8088 24.2964 31.809 24.4436C31.8104 25.3734 31.8117 26.2805 31.7587 27.1938L31.7586 27.1938L31.7584 27.1986C31.7009 28.3859 31.4372 29.35 30.6445 30.1426C29.8537 30.9334 28.8876 31.199 27.7004 31.2565L27.7004 31.2565L27.6965 31.2567C26.7671 31.309 25.8435 31.308 24.8975 31.307C24.7661 31.3069 24.6343 31.3067 24.502 31.3067C24.3699 31.3067 24.2383 31.3069 24.1071 31.307C23.1624 31.308 22.2386 31.309 21.3073 31.2567L21.3073 31.2567L21.3035 31.2565C20.1161 31.199 19.1521 30.9353 18.3594 30.1426C17.5686 29.3518 17.303 28.3857 17.2455 27.1986L17.2455 27.1986L17.2453 27.1947C17.193 26.2652 17.194 25.3401 17.195 24.395C17.1952 24.2637 17.1953 24.1321 17.1953 24.0001C17.1953 23.868 17.1952 23.7364 17.195 23.6053C17.194 22.6605 17.193 21.7367 17.2453 20.8055L17.2453 20.8055L17.2455 20.8016C17.303 19.6143 17.5668 18.6502 18.3594 17.8576C19.1502 17.0667 20.1163 16.8012 21.3035 16.7436L21.3035 16.7437L21.3074 16.7434C22.2368 16.6912 23.1603 16.6921 24.1064 16.6932C24.2378 16.6933 24.3696 16.6935 24.502 16.6935C24.634 16.6935 24.7656 16.6933 24.8968 16.6932C25.8416 16.6921 26.7653 16.6911 27.6966 16.7434L27.6966 16.7435L27.7004 16.7436C28.8878 16.8012 29.8518 17.0649 30.6445 17.8576C31.4353 18.6484 31.7009 19.6145 31.7584 20.8016ZM31.0539 28.7917L31.0545 28.7902C31.2955 28.1837 31.3731 27.2317 31.4009 26.3605C31.4214 25.7152 31.415 25.0549 31.4099 24.5306C31.408 24.3314 31.4063 24.1518 31.4063 24.0001C31.4063 23.848 31.408 23.6677 31.41 23.4676C31.4151 22.9435 31.4215 22.2837 31.4011 21.6388C31.3736 20.7672 31.2965 19.815 31.0568 19.2088L31.0559 19.2065C30.8887 18.7897 30.6797 18.469 30.3561 18.1452C30.0329 17.8198 29.7093 17.611 29.2936 17.4442L29.2913 17.4433C28.6851 17.2036 27.7329 17.1265 26.8612 17.099C26.2164 17.0786 25.5566 17.085 25.0325 17.0901C24.8324 17.0921 24.6521 17.0938 24.5 17.0938C24.3479 17.0938 24.1676 17.0921 23.9675 17.0901C23.4434 17.085 22.7836 17.0786 22.1388 17.099C21.2671 17.1265 20.3149 17.2036 19.7087 17.4433L19.7087 17.4433L19.7064 17.4442C19.288 17.6121 18.968 17.8233 18.6458 18.1433C18.32 18.4668 18.111 18.7905 17.9441 19.2065L17.9441 19.2065L17.9432 19.2088C17.7035 19.815 17.6264 20.7672 17.5989 21.6388C17.5785 22.2837 17.5849 22.9435 17.59 23.4676C17.592 23.6677 17.5938 23.848 17.5938 24.0001C17.5938 24.1522 17.592 24.3325 17.59 24.5325C17.5849 25.0565 17.5785 25.716 17.5989 26.3606C17.6264 27.2321 17.7035 28.1841 17.9431 28.7911L17.9431 28.7911L17.9441 28.7936C18.1113 29.2105 18.3203 29.5313 18.6439 29.855C18.9672 30.1804 19.2907 30.3892 19.7064 30.556L19.7087 30.5569C20.3149 30.7966 21.2671 30.8737 22.1388 30.9012C22.7836 30.9216 23.4434 30.9152 23.9675 30.91C24.1676 30.9081 24.3479 30.9063 24.5 30.9063C24.6517 30.9063 24.8313 30.9081 25.0305 30.91C25.5548 30.9151 26.2151 30.9215 26.8604 30.901C27.7316 30.8732 28.6836 30.7956 29.2901 30.5546L29.2916 30.554C29.7085 30.3868 30.0292 30.1779 30.353 29.8542C30.6784 29.531 30.8872 29.2074 31.0539 28.7917ZM20.9941 24.0001C20.9941 22.0594 22.5593 20.4942 24.5 20.4942C26.4407 20.4942 28.0059 22.0594 28.0059 24.0001C28.0059 25.9407 26.4407 27.5059 24.5 27.5059C22.5593 27.5059 20.9941 25.9407 20.9941 24.0001ZM21.3965 24.0001C21.3965 25.7098 22.7903 27.1036 24.5 27.1036C26.2097 27.1036 27.6035 25.7098 27.6035 24.0001C27.6035 22.2904 26.2097 20.8966 24.5 20.8966C22.7903 20.8966 21.3965 22.2904 21.3965 24.0001ZM30.998 30.4962C31.9141 29.5802 32.1973 28.4727 32.2578 27.2227L16.7461 20.7774C16.6929 21.724 16.694 22.663 16.695 23.6064C16.6952 23.7376 16.6953 23.8688 16.6953 24.0001C16.6953 24.1314 16.6952 24.2626 16.695 24.3938C16.694 25.3375 16.6929 26.2779 16.7461 27.2227C16.8066 28.4727 17.0918 29.5821 18.0059 30.4962C18.9219 31.4122 20.0293 31.6954 21.2793 31.7559C22.2259 31.8091 23.1649 31.8081 24.1083 31.807C24.2394 31.8069 24.3706 31.8067 24.502 31.8067C24.6335 31.8067 24.765 31.8069 24.8963 31.807C25.841 31.8081 26.7798 31.8091 27.7246 31.7559C28.9746 31.6954 30.084 31.4102 30.998 30.4962Z" fill="#F58634" stroke="#0052CC"/>
</svg>
